<?xml version="1.0" standalone="no"?>
<!DOCTYPE svg PUBLIC "-//W3C//DTD SVG 20010904//EN"
 "http://www.w3.org/TR/2001/REC-SVG-20010904/DTD/svg10.dtd">
<svg version="1.0" xmlns="http://www.w3.org/2000/svg"
 width="216.000000pt" height="233.000000pt" viewBox="0 0 216.000000 233.000000"
 preserveAspectRatio="xMidYMid meet">

<g transform="translate(0.000000,233.000000) scale(0.100000,-0.100000)"
fill="#000000" stroke="none">
<path d="M1068 2053 c-31 -33 -35 -55 -13 -73 17 -14 21 -60 5 -60 -6 0 -10
-52 -10 -135 l0 -135 -233 0 c-213 0 -235 -2 -250 -18 -14 -16 -17 -53 -19
-263 l-3 -244 -103 -5 c-88 -4 -106 -8 -118 -24 -11 -16 -14 -78 -14 -331 l0
-312 23 -21 23 -22 725 0 726 0 21 23 c22 23 22 29 22 333 0 252 -3 314 -14
330 -12 16 -30 20 -118 24 l-103 5 -3 244 c-2 210 -5 247 -19 263 -15 16 -37
18 -255 18 l-238 0 0 135 c0 83 -4 135 -10 135 -16 0 -12 31 6 51 13 15 15 27
8 64 l-9 46 -27 -28z"/>
<path d="M0 85 l0 -85 1080 0 1080 0 0 85 0 85 -1080 0 -1080 0 0 -85z m218
13 c14 5 15 4 2 -10 -9 -10 -17 -12 -21 -6 -4 6 -9 5 -12 -3 -3 -8 -6 -3 -6
11 -1 18 2 21 10 13 6 -6 19 -9 27 -5z m77 2 c-17 -7 -17 -9 -2 -9 19 -1 23
-26 6 -37 -6 -3 -16 -1 -22 6 -9 10 -9 11 0 6 6 -3 14 -2 17 3 3 5 -1 11 -9
15 -23 8 -18 26 8 25 21 0 21 -1 2 -9z m32 -27 c-3 -10 -5 -4 -5 12 0 17 2 24
5 18 2 -7 2 -21 0 -30z m112 21 c4 3 7 -3 7 -13 0 -10 -6 -18 -13 -18 -8 0
-13 11 -12 26 0 14 3 20 6 13 2 -6 8 -10 12 -8z m-41 -5 c-9 -6 -8 -12 3 -25
13 -16 12 -16 -8 -6 -14 8 -24 9 -28 2 -9 -15 -25 -2 -25 20 0 14 7 18 35 17
19 -1 29 -4 23 -8z m1523 -22 c-10 -9 -11 -8 -5 6 3 10 9 15 12 12 3 -3 0 -11
-7 -18z m69 10 c0 -5 6 -5 13 2 10 8 14 7 14 -4 0 -10 -9 -14 -27 -13 -27 2
-39 25 -13 25 7 0 13 -5 13 -10z m60 4 c0 -6 -4 -12 -8 -15 -5 -3 -9 1 -9 9 0
8 4 15 9 15 4 0 8 -4 8 -9z m17 -13 c-3 -8 -6 -5 -6 6 -1 11 2 17 5 13 3 -3 4
-12 1 -19z m27 6 c3 -8 2 -12 -4 -9 -6 3 -10 10 -10 16 0 14 7 11 14 -7z
m-1970 -10 c3 -8 2 -12 -4 -9 -6 3 -10 10 -10 16 0 14 7 11 14 -7z m126 12 c0
-2 -8 -10 -17 -17 -16 -13 -17 -12 -4 4 13 16 21 21 21 13z m1364 -4 c2 -4 -6
-8 -19 -8 -13 0 -21 4 -19 8 7 10 31 10 38 0z m136 -2 c0 -5 -4 -10 -10 -10
-5 0 -10 5 -10 10 0 6 5 10 10 10 6 0 10 -4 10 -10z m143 3 c3 -5 -6 -8 -19
-8 -13 0 -24 3 -24 8 0 4 9 7 19 7 11 0 22 -3 24 -7z"/>
<path d="M350 74 c0 -8 5 -12 10 -9 6 3 10 10 10 16 0 5 -4 9 -10 9 -5 0 -10
-7 -10 -16z"/>
</g>
</svg>
