<?xml version="1.0" encoding="iso-8859-1"?>
<!-- Generator: Adobe Illustrator 19.0.0, SVG Export Plug-In . SVG Version: 6.00 Build 0)  -->
<svg version="1.1" id="Layer_1" xmlns="http://www.w3.org/2000/svg" xmlns:xlink="http://www.w3.org/1999/xlink" x="0px" y="0px"
	 viewBox="0 0 368.418 368.418" style="enable-background:new 0 0 368.418 368.418;" xml:space="preserve">
<g id="XMLID_1249_">
	<g id="XMLID_1250_">
		<circle id="XMLID_1251_" style="fill:#FF5959;" cx="184.209" cy="63.223" r="23.593"/>
		<circle id="XMLID_1252_" style="fill:#FF5959;" cx="225.95" cy="75.02" r="23.593"/>
		<circle id="XMLID_1253_" style="fill:#FF5959;" cx="142.469" cy="75.02" r="23.593"/>
	</g>
	<g id="XMLID_1256_">
		<path id="XMLID_1255_" style="fill:#FFE165;" d="M283.114,160.947H85.304v-58.826c0-13.057,10.585-23.643,23.643-23.643h150.525
			c13.057,0,23.643,10.585,23.643,23.643L283.114,160.947L283.114,160.947z"/>
	</g>
	<g id="XMLID_1259_">
		<path id="XMLID_1258_" style="fill:#FFA250;" d="M317.943,229.613H50.476v-58.826c0-13.057,10.585-23.643,23.643-23.643H294.3
			c13.057,0,23.643,10.585,23.643,23.643V229.613z"/>
	</g>
	<g id="XMLID_1262_">
		<path id="XMLID_1261_" style="fill:#FFE165;" d="M342.913,298.28H25.505v-58.826c0-13.057,10.585-23.643,23.643-23.643h270.123
			c13.057,0,23.642,10.585,23.642,23.643V298.28z"/>
	</g>
	<g id="XMLID_1265_">
		<path id="XMLID_1264_" style="fill:#5FD2DB;" d="M346.568,328.788H21.851C9.783,328.788,0,319.005,0,306.937l0,0
			c0-12.068,9.783-21.851,21.851-21.851h324.716c12.068,0,21.851,9.783,21.851,21.851l0,0
			C368.419,319.005,358.636,328.788,346.568,328.788z"/>
	</g>
</g>
<g>
</g>
<g>
</g>
<g>
</g>
<g>
</g>
<g>
</g>
<g>
</g>
<g>
</g>
<g>
</g>
<g>
</g>
<g>
</g>
<g>
</g>
<g>
</g>
<g>
</g>
<g>
</g>
<g>
</g>
</svg>
